<svg width="567" height="463" viewBox="0 0 567 463" fill="none" xmlns="http://www.w3.org/2000/svg">
<path fill-rule="evenodd" clip-rule="evenodd" d="M261.796 2.17424C261.058 3.36933 260.454 5.18732 260.454 6.2142C260.454 7.76628 260.741 8.07993 262.164 8.07993C263.104 8.07993 265.105 8.82402 266.61 9.73265L269.347 11.3854L269.504 71.8012L269.661 132.217H280.7H291.74L291.583 109.078C291.497 96.3524 291.633 85.9404 291.886 85.9404C292.14 85.9411 292.346 86.3568 292.346 86.8651C292.346 87.3742 294.291 96.5464 296.667 107.249C299.043 117.952 301.258 127.935 301.59 129.435L302.194 132.163L328.199 132.185L354.203 132.207L352.726 125.785C338.425 63.6104 328.556 21.771 328.048 21.1628C327.005 19.9134 321.982 19.5762 319.051 20.5583C317.548 21.0629 315.213 22.6076 313.863 23.9908L311.409 26.5066L310.422 22.2514C309.879 19.9112 309.33 17.6003 309.202 17.1162C308.849 15.7838 304.277 14.5652 301.69 15.1153C298.773 15.736 293.667 18.9856 292.895 20.7118C291.758 23.2555 291.428 21.9906 291.639 15.902C291.843 10.0088 291.788 9.70694 290.234 8.24373C286.553 4.77597 279.097 4.73337 275.083 8.15779L273.333 9.64891V4.82445V0H268.236C263.298 0 263.095 0.0683121 261.796 2.17424ZM283.894 16.7108C285.669 19.1443 286.362 23.4538 286.092 30.382C285.921 34.7782 285.468 37.9177 284.78 39.4815C282.106 45.5517 278.702 39.5123 278.705 28.7051C278.707 22.3256 279.371 19.0503 281.138 16.7122C282.352 15.1043 282.722 15.1043 283.894 16.7108ZM327.919 24.4396C327.919 25.0155 326.06 25.8345 323.074 26.5742C320.409 27.2338 317.219 28.3473 315.985 29.0488C313.397 30.5201 311.852 29.6592 313.644 27.745C316.271 24.9405 327.919 22.2441 327.919 24.4396ZM55.2095 28.7491C53.1371 29.1024 50.4458 29.8899 49.2296 30.4981L47.0186 31.605V37.1038C47.0186 40.1286 47.0873 42.5996 47.1719 42.5952C47.2566 42.5908 48.7052 42.081 50.3919 41.4618C56.9501 39.0555 72.1365 39.447 73.4876 42.0575C73.763 42.5901 75.0191 42.4645 77.4742 41.6587C85.0254 39.1789 98.5006 39.4888 100.026 42.178C100.504 43.0212 100.966 43.0234 102.925 42.1963C106.991 40.4783 117.061 39.494 121.255 40.4048C123.308 40.8507 125.384 41.3979 125.868 41.6205C126.583 41.9495 126.75 41.0541 126.75 36.8856V31.7446L124.222 30.5333C119.003 28.0322 106.542 28.3936 102.271 31.1702C100.994 32.0002 100.406 31.9231 97.9781 30.6105C93.9645 28.4406 84.2667 28.0197 78.8744 29.7812C74.131 31.3303 73.1969 31.3465 70.0181 29.931C66.792 28.4957 59.9161 27.9463 55.2095 28.7491ZM329.617 29.5241C329.483 30.0067 327.459 30.8022 325.119 31.2921C322.78 31.7828 319.658 32.7098 318.182 33.3532C314.857 34.8032 314.426 34.8091 314.426 33.4032C314.426 32.2279 315.972 31.3009 320.559 29.7261C324.217 28.47 329.946 28.3422 329.617 29.5241ZM307.585 37.3763C308.367 39.3493 309.927 42.0311 311.051 43.3356C313.087 45.6994 313.093 45.7265 312.749 51.1702C312.417 56.4302 312.47 56.7197 314.182 58.9835L315.959 61.334L315.652 70.1485L315.346 78.963L312.728 74.3927C311.288 71.8791 309.196 68.949 308.079 67.881L306.047 65.9396L306.796 60.7097L307.545 55.4798L305.451 53.1138L303.357 50.7486L304.038 43.921C305.222 32.056 305.369 31.785 307.585 37.3763ZM305.618 38.196C305.431 39.61 304.995 42.8993 304.648 45.5054C304.062 49.9083 304.111 50.3637 305.342 51.9327C307.103 54.1781 307.679 54.0614 307.679 51.4611C307.679 48.0859 308.729 48.1329 310.239 51.5757L311.619 54.7232L312.023 50.4871C312.412 46.392 312.356 46.1607 310.309 43.509C309.145 42.001 307.689 39.61 307.075 38.196L305.956 35.6252L305.618 38.196ZM33.7795 38.758C33.2189 39.2126 31.6856 43.5185 31.6856 44.6394C31.6856 44.8304 32.1058 44.5696 32.6185 44.0591C33.2711 43.4113 34.6756 43.2724 37.2828 43.5986C42.0556 44.1965 44.1998 45.4246 44.4709 47.7171C44.6445 49.1855 44.5273 49.3559 43.8226 48.6559C42.3525 47.1941 35.9188 45.5356 33.5109 45.9968L31.2367 46.4324L23.093 78.8572C14.2116 114.222 14.0815 114.775 15.0365 113.145C15.5713 112.234 16.303 112.201 19.8615 112.932C25.9186 114.176 28.5939 115.647 28.1873 117.509C27.7935 119.313 27.9806 119.313 23.1979 117.517C21.0593 116.714 18.2306 116.057 16.9114 116.057C15.4241 116.057 14.4961 115.708 14.4698 115.139C14.4324 114.342 13.4467 116.445 13.329 117.573C13.3057 117.8 14.5973 118.061 16.1993 118.153C19.4879 118.34 26.0284 120.338 26.5289 121.308C26.7098 121.66 26.6938 122.567 26.4933 123.324C26.1425 124.648 25.9486 124.633 21.4297 122.914C18.8458 121.931 15.7553 121.242 14.5618 121.38C12.5237 121.618 12.3293 121.875 11.3437 125.64C9.47857 132.761 8.56534 132.217 22.3828 132.217H34.5468L40.2684 105.957C43.4154 91.514 46.2127 79.2017 46.4856 78.5957C46.758 77.9897 46.9898 89.8062 47.0002 104.855L47.0186 132.217H86.8844H126.75V92.9853V53.7543L122.368 52.8685C115.94 51.5705 108.209 52.7935 101.451 56.179C100.64 56.5852 100.377 56.3627 100.377 55.2697C100.377 54.0937 99.6856 53.6463 96.6926 52.8854C90.2521 51.2488 81.5546 52.5328 74.4647 56.1665C73.6385 56.5904 73.3913 56.3634 73.3913 55.183C73.3913 52.9999 71.314 52.51 62.3516 52.5776C56.0884 52.6253 54.0221 52.9272 51.0622 54.2303C49.0702 55.1073 47.3277 55.825 47.1903 55.825C47.053 55.825 47.0272 54.7636 47.1333 53.4656C47.3038 51.3685 47.6319 50.9976 50.0852 50.1272C55.2046 48.3114 63.3593 47.568 67.9622 48.498C70.2886 48.9681 72.5646 49.7981 73.0191 50.3417C73.7115 51.1717 74.3285 51.1504 76.8382 50.2087C83.1769 47.8303 99.1097 48.2269 100.436 50.7963C100.72 51.348 101.86 51.1834 104.139 50.2631C108.071 48.6742 122.266 48.3481 125.064 49.7827C126.716 50.6296 126.75 50.5958 126.75 48.1285C126.75 45.8448 126.537 45.5392 124.45 44.8458C119.073 43.0572 106.999 44.483 102.064 47.4894C100.507 48.4377 100.377 48.4069 100.377 47.0862C100.377 43.1285 86.2484 42.4005 78.1893 45.9425C73.4515 48.0249 73.3913 48.0315 73.3913 46.4618C73.3913 42.8486 59.9529 42.4064 51.4652 45.7405L47.0186 47.4872V45.8793C47.0186 43.6838 45.0309 40.8316 42.496 39.3911C40.3518 38.1725 34.9835 37.7825 33.7795 38.758ZM308.298 52.3514C308.294 54.1495 308.884 56.1974 309.979 58.1873C311.619 61.1688 311.671 61.1996 311.856 59.3243C311.969 58.1755 311.289 55.8154 310.175 53.4884L308.304 49.5814L308.298 52.3514ZM307.448 61.373C307.062 65.3086 307.12 65.5341 309.107 67.8002C310.239 69.0915 311.936 71.5529 312.877 73.2703C313.819 74.9876 314.677 76.3921 314.785 76.3921C314.893 76.3921 314.834 74.8216 314.653 72.903C314.473 70.9844 314.582 67.5225 314.894 65.2109C315.427 61.2584 315.372 60.908 313.954 59.3346L312.446 57.6613L312.849 60.9668L313.252 64.2722L311.088 61.334C309.898 59.718 308.92 58.1476 308.915 57.845C308.91 57.5423 308.668 57.2941 308.377 57.2941C308.086 57.2941 307.668 59.1297 307.448 61.373ZM173.775 87.4418C171.69 89.4052 171.104 93.1256 172.404 96.1358C172.948 97.3962 173.663 98.4283 173.992 98.4283C174.32 98.4283 174.589 98.7588 174.589 99.1628C174.589 99.6256 170.413 99.8973 163.287 99.8973H151.986L150.162 102.546C147.912 105.816 146.752 110.569 146.784 116.392C146.816 122.294 147.784 126.125 150.086 129.463L151.986 132.217H176.721H201.457L201.7 139.012C201.838 142.862 202.35 146.92 202.881 148.377L203.82 150.948L204.893 147.091C205.484 144.971 206.214 143.235 206.515 143.235C206.817 143.235 207.47 144.178 207.968 145.33C208.739 147.116 211.324 149.846 212.244 149.846C212.401 149.846 212.273 148.774 211.959 147.464C211.645 146.153 211.388 142.187 211.388 138.649V132.217H220.588H229.788V129.665V127.113L220.502 126.911L211.215 126.708L210.488 123.77C209.033 117.894 208.602 117.526 203.172 117.526C198.59 117.526 198.372 117.598 199.286 118.812C199.817 119.519 200.438 121.089 200.664 122.301C200.891 123.513 201.208 125.087 201.369 125.799C201.646 127.02 200.337 127.082 177.891 126.9L154.121 126.708L153.593 124.266C153.06 121.805 153.885 107.268 154.64 105.805C154.908 105.287 167.117 105.039 192.411 105.039H229.788V102.468C229.788 100.65 229.513 99.8973 228.849 99.8973C228.332 99.8973 227.75 99.4015 227.557 98.7955C227.25 97.8406 223.818 97.6937 201.828 97.6937H176.452L176.109 96.041C175.92 95.1316 175.996 93.0661 176.278 91.4501L176.79 88.512L202.063 88.3203C223.962 88.1543 227.334 87.9824 227.334 87.0348C227.334 86.0836 223.953 85.9411 201.351 85.9411C176.113 85.9411 175.322 85.9844 173.775 87.4418ZM250.487 102.645C252.596 102.788 256.046 102.788 258.154 102.645C260.262 102.501 258.537 102.384 254.321 102.384C250.104 102.384 248.379 102.501 250.487 102.645ZM341.211 109.7C342.045 112.869 342.581 115.637 342.402 115.85C341.654 116.747 340.271 115.26 339.882 113.14C339.556 111.358 339.218 110.951 338.343 111.283C336.741 111.892 336.519 110.999 337.28 107.018C338.237 102.011 339.398 102.804 341.211 109.7ZM247.727 104.811C248.317 104.996 249.284 104.996 249.874 104.811C250.464 104.626 249.981 104.475 248.801 104.475C247.62 104.475 247.137 104.626 247.727 104.811ZM66.8656 105.506L69.7114 105.973V116.157V126.341H60.8183H51.9252V116.101V105.863L54.2251 105.574C58.338 105.059 63.9573 105.029 66.8656 105.506ZM95.3175 106.217C96.6607 106.667 96.6975 106.942 96.6975 116.51V126.341L95.0109 126.373C94.0835 126.391 90.0123 126.472 85.9644 126.552L78.6046 126.698L78.4341 116.622C78.2433 105.361 77.8379 106.373 82.8978 105.487C85.1413 105.094 93.4162 105.581 95.3175 106.217ZM121.997 106.446C122.965 106.502 123.07 107.511 123.07 116.792V127.075H114.177H105.284V116.837V106.599L107.891 106.192C112.657 105.448 114.15 105.403 117.55 105.896C119.406 106.164 121.406 106.412 121.997 106.446ZM324.239 105.822C322.384 106.154 319.649 106.944 318.163 107.577C316.677 108.209 315.349 108.594 315.213 108.43C315.002 108.178 317.684 106.865 321.172 105.512C321.678 105.315 323.334 105.169 324.852 105.187L327.612 105.218L324.239 105.822ZM250.82 108.522C253.11 108.664 256.698 108.663 258.793 108.52C260.887 108.378 259.012 108.262 254.627 108.263C250.242 108.264 248.528 108.381 250.82 108.522ZM326.999 108.475C326.324 108.654 323.598 109.455 320.941 110.254C315.491 111.895 313.806 111.647 318.827 109.943C323.58 108.331 324.349 108.148 326.386 108.148C327.51 108.148 327.749 108.275 326.999 108.475ZM248.647 110.667C249.069 110.871 249.759 110.871 250.181 110.667C250.603 110.464 250.257 110.297 249.414 110.297C248.571 110.297 248.226 110.464 248.647 110.667ZM259.687 114.34C260.109 114.544 260.799 114.544 261.22 114.34C261.642 114.136 261.297 113.97 260.454 113.97C259.61 113.97 259.266 114.136 259.687 114.34ZM349.385 119.23C349.385 119.897 347.646 120.478 343.817 121.088C340.754 121.576 337.627 122.463 336.868 123.059C335.456 124.167 334.665 123.873 334.665 122.239C334.665 121.314 338.569 119.297 341.412 118.754C345.218 118.027 349.385 118.276 349.385 119.23ZM248.307 123.035C248.319 124.247 248.457 124.654 248.612 123.94C248.768 123.225 248.758 122.233 248.59 121.736C248.422 121.239 248.295 121.823 248.307 123.035ZM330.372 121.853C329.866 122.188 327.658 122.872 325.466 123.372C323.273 123.873 320.972 124.607 320.353 125.004C319.734 125.401 319.077 125.545 318.894 125.326C318.372 124.701 321.109 123.456 325.466 122.339C330.324 121.092 331.731 120.953 330.372 121.853ZM350.918 124.137C350.918 124.8 350.429 125.178 349.692 125.086C349.017 125.002 345.887 125.747 342.737 126.739C335.985 128.867 336.505 128.804 336.505 127.504C336.505 125.761 344.503 122.683 348.465 122.901C350.187 122.995 350.918 123.364 350.918 124.137ZM326.119 126.747C322.6 127.722 319.62 128.4 319.497 128.252C319.072 127.743 328.236 124.986 330.372 124.98C331.637 124.977 329.891 125.702 326.119 126.747ZM250.526 129.781C250.968 129.993 251.497 129.966 251.701 129.723C251.905 129.479 251.543 129.305 250.896 129.337C250.182 129.372 250.036 129.546 250.526 129.781ZM0.667015 155.633C0.850397 155.988 2.24693 156.111 3.7698 155.905C6.09121 155.592 6.53955 155.733 6.53955 156.781C6.53955 158.21 7.94957 160.13 9.00019 160.13C9.38964 160.13 9.58161 160.543 9.42705 161.048C9.2725 161.553 8.83581 161.883 8.45617 161.782C7.16452 161.439 7.76312 162.196 11.7399 165.939C15.8749 169.831 17.4855 170.88 14.9445 168.026C13.2934 166.172 13.4026 164.537 15.1769 164.537C15.9436 164.537 16.3527 164.026 16.3527 163.068C16.3527 161.51 18.4054 160.963 19.1126 162.333C19.3211 162.737 21.5291 163.068 24.0191 163.068C26.5092 163.068 28.7172 162.737 28.9257 162.333C29.4513 161.315 341.806 161.315 342.332 162.333C342.801 163.243 346.932 163.315 346.932 162.413C346.932 162.053 347.69 161.504 348.618 161.193C349.889 160.768 350.039 160.554 349.224 160.323C348.63 160.156 348.301 159.713 348.494 159.339C348.708 158.924 283.2 158.683 179.992 158.719C66.1658 158.757 11.689 159.017 12.8261 159.514C14.4526 160.226 15.1591 161.599 13.8994 161.599C13.5621 161.599 13.2861 161.268 13.2861 160.864C13.2861 160.46 12.4581 160.13 11.4461 160.13C9.90912 160.13 9.60614 159.837 9.60614 158.354C9.60614 157.378 9.26146 156.422 8.83949 156.229C8.41814 156.037 9.8668 155.888 12.0594 155.899C14.252 155.91 16.2079 156.221 16.406 156.589C16.6219 156.991 18.3367 156.984 20.6992 156.572C23.047 156.163 91.9455 155.848 191.652 155.791C326.471 155.713 358.582 155.874 358.204 156.627C357.873 157.286 358.039 157.264 358.774 156.551C359.345 155.996 359.811 155.417 359.811 155.265C359.811 155.113 278.929 154.988 180.073 154.988C76.9069 154.988 0.475659 155.263 0.667015 155.633ZM2.24631 156.735C2.24631 156.887 2.6603 157.423 3.16629 157.926C3.92006 158.675 4.08627 158.624 4.08627 157.648C4.08627 156.993 3.67228 156.457 3.16629 156.457C2.6603 156.457 2.24631 156.582 2.24631 156.735ZM354.905 157.949C354.905 158.77 354.512 159.621 354.032 159.842C353.553 160.063 353 160.741 352.805 161.35C352.61 161.96 353.556 161.409 354.907 160.127C357.282 157.875 357.622 156.457 355.789 156.457C355.302 156.457 354.905 157.128 354.905 157.949ZM8.99282 158.505C8.99282 159.373 8.81926 159.402 8.07285 158.66C7.56686 158.157 7.15287 157.676 7.15287 157.591C7.15287 157.506 7.56686 157.436 8.07285 157.436C8.57883 157.436 8.99282 157.917 8.99282 158.505ZM5.61957 160.13C6.22982 160.938 6.86767 161.599 7.03634 161.599C7.205 161.599 6.84314 160.938 6.23289 160.13C5.62264 159.322 4.98478 158.66 4.81612 158.66C4.64746 158.66 5.00932 159.322 5.61957 160.13ZM13.8994 162.333C14.5679 162.85 14.5998 163.049 14.0165 163.057C13.5749 163.063 13.3498 163.331 13.5161 163.654C13.6823 163.976 13.5817 164.698 13.2922 165.259C12.8623 166.093 12.5936 166.107 11.819 165.337C11.2983 164.82 10.9321 164.056 11.0057 163.64C11.0793 163.224 10.7561 162.717 10.2875 162.513C9.71593 162.265 9.59572 162.453 9.922 163.086C10.244 163.709 10.1655 163.849 9.69078 163.497C9.2958 163.205 9.13143 162.659 9.32586 162.282C9.78646 161.39 12.723 161.422 13.8994 162.333ZM348.772 162.639C348.772 163.212 348.427 163.846 348.005 164.051C347.481 164.304 347.529 164.44 348.158 164.48C348.737 164.518 348.295 165.342 346.972 166.696C345.043 168.672 344.8 168.749 344.097 167.613C343.398 166.485 343.349 166.505 343.551 167.842C343.672 168.65 343.792 169.581 343.818 169.911C343.867 170.531 351.021 164.056 351.665 162.81C351.865 162.423 351.709 162.342 351.32 162.631C350.931 162.919 350.612 162.804 350.612 162.377C350.612 161.949 350.198 161.599 349.692 161.599C349.186 161.599 348.772 162.067 348.772 162.639ZM350.279 163.017C350.473 163.393 350.397 163.874 350.111 164.087C349.824 164.299 349.589 163.991 349.589 163.403C349.589 162.164 349.783 162.056 350.279 163.017ZM345.373 165.321C344.713 166.599 345.465 166.87 346.306 165.656C346.79 164.958 346.837 164.537 346.429 164.537C346.071 164.537 345.595 164.889 345.373 165.321ZM18.322 167.768C18.7569 168.334 19.2095 168.686 19.3273 168.552C19.691 168.138 18.7691 166.74 18.1325 166.74C17.8013 166.74 17.8866 167.203 18.322 167.768ZM338.162 167.939C337.926 168.223 337.736 168.978 337.741 169.618C337.75 170.636 337.825 170.644 338.345 169.679C338.857 168.729 338.941 168.749 338.949 169.819C338.954 170.502 338.683 171.265 338.345 171.515C337.534 172.115 337.559 173.351 338.381 173.351C338.738 173.351 338.873 173.044 338.679 172.67C338.486 172.295 338.952 171.754 339.716 171.469C340.48 171.183 341.278 170.628 341.489 170.235C341.724 169.798 342.044 169.855 342.317 170.384C342.586 170.907 342.285 171.396 341.551 171.626C340.885 171.834 339.698 173.046 338.913 174.318C337.491 176.621 337.497 176.618 340.305 173.863C342.382 171.824 343.043 170.715 342.81 169.652C342.421 167.866 341.679 167.808 340.814 169.495C340.209 170.676 340.169 170.663 340.323 169.338C340.491 167.899 339.002 166.934 338.162 167.939ZM19.1518 171.806C18.9587 172.181 19.8768 173.509 21.193 174.757L23.5855 177.027L180.505 176.84L337.425 176.654L180.337 176.472C41.576 176.311 23.1605 176.161 22.4858 175.188C21.9584 174.427 21.9351 174.086 22.411 174.086C22.7894 174.086 23.0992 173.715 23.0992 173.262C23.0992 172.681 22.8348 172.7 22.2062 173.325C21.2641 174.261 19.7811 173.698 20.3392 172.617C20.5189 172.269 20.4042 171.79 20.0847 171.554C19.7652 171.317 19.3457 171.43 19.1518 171.806ZM29.999 173.123C30.5896 173.308 31.555 173.308 32.1456 173.123C32.7363 172.938 32.253 172.787 31.0723 172.787C29.8917 172.787 29.4084 172.938 29.999 173.123ZM112.49 173.168C153.054 173.272 219.43 173.272 259.994 173.168C300.557 173.063 267.369 172.978 186.242 172.978C105.115 172.978 71.9267 173.063 112.49 173.168ZM370.58 189.831C367.052 191.397 365.304 193.156 362.736 197.722L360.448 201.79L357.216 200.743C353.227 199.449 344.334 199.883 339.725 201.594L336.505 202.789V208.605V214.42L339.058 213.342C341.896 212.142 353.074 210.783 355.87 211.297C361.103 212.26 362.878 213.18 362.878 214.93C362.878 216.493 362.693 216.603 360.885 216.12C359.788 215.827 355.718 215.589 351.838 215.592C346.06 215.596 344.037 215.906 340.645 217.305C338.369 218.244 336.505 219.316 336.505 219.687C336.505 220.091 317.305 220.362 288.632 220.362H240.759L239.422 223.851C237.631 228.528 237.536 237.73 239.234 242.238L240.401 245.336H248.281C252.614 245.336 256.16 245.625 256.16 245.978C256.16 246.331 255.732 248.067 255.208 249.834C254.665 251.666 254.258 255.435 254.261 258.597C254.266 264.015 254.382 264.868 255.679 269.025L256.31 271.045H296.407H336.505V287.205V303.365H349.692H362.878L362.896 283.349C362.907 272.339 363.141 263.828 363.417 264.434C363.693 265.04 365.805 274.047 368.111 284.45L372.304 303.365H389.364C398.747 303.365 406.413 303.117 406.399 302.814C406.385 302.51 404.771 295.405 402.813 287.021C400.855 278.638 399.417 271.789 399.618 271.8C399.819 271.811 403.158 278.911 407.037 287.578L414.09 303.335L432.665 303.35L451.239 303.365L450.505 301.712C450.101 300.803 442.831 285.185 434.348 267.005C425.866 248.825 414.802 225.068 409.761 214.211C403.51 200.745 400.146 194.222 399.177 193.688C398.148 193.12 396.969 193.154 394.884 193.816C389.235 195.606 384.965 200.523 384.96 205.243C384.956 208.545 384.415 207.2 382.426 198.947C381.418 194.768 380.248 190.926 379.825 190.411C378.62 188.943 373.328 188.611 370.58 189.831ZM379.744 193.918C379.744 194.698 378.803 195.158 376.523 195.491C374.751 195.75 371.512 196.718 369.325 197.643C365.286 199.351 363.94 199.231 365.29 197.283C365.941 196.345 371.153 193.969 374.838 192.932C377.203 192.266 379.744 192.777 379.744 193.918ZM381.278 198.585C381.278 199.248 379.806 199.87 376.86 200.453C374.43 200.934 371.226 201.971 369.74 202.759C367.139 204.137 365.945 204.123 365.945 202.715C365.945 201.738 368.218 200.417 372.384 198.972C376.978 197.379 381.278 197.192 381.278 198.585ZM496.888 200.773C491.246 202.525 491.062 202.784 491.062 208.97V214.42L493.395 213.434C499.077 211.033 510.919 210.639 516.267 212.672C517.338 213.079 517.434 212.695 517.434 208.004V202.892L514.828 201.632C511.404 199.976 501.052 199.481 496.888 200.773ZM402.459 207.416C407.746 214.025 408.691 225.504 403.948 225.504C402.213 225.504 398.565 221.317 396.928 217.449C393.873 210.23 394.369 204.202 398.017 204.202C399.425 204.202 400.522 204.996 402.459 207.416ZM396.733 205.818C394.871 208.048 396.673 216.265 400.065 221.01C402.479 224.389 404.726 224.992 405.815 222.555C407.23 219.388 404.625 210.829 401.125 207.149C398.843 204.749 397.872 204.455 396.733 205.818ZM552.394 206.123C551.55 206.307 549.732 206.948 548.353 207.548L545.845 208.64L545.419 255.366C545.184 281.064 545.084 302.2 545.196 302.335C545.308 302.469 549.965 302.712 555.546 302.875L565.691 303.171L566.095 278.477C566.317 264.895 566.499 243.655 566.499 231.276L566.5 208.769L564.087 207.612C561.544 206.394 554.986 205.559 552.394 206.123ZM555.057 209.467C555.566 210.44 555.312 211.124 553.824 212.789C551.733 215.127 551.589 216.214 550.794 235.633C550.519 242.325 550.178 245.309 549.707 245.122C549.243 244.937 548.884 239.278 548.598 227.655C548.223 212.311 548.285 210.317 549.181 209.131C550.427 207.482 554.129 207.693 555.057 209.467ZM497.454 216.652C492.467 218.417 491.062 219.4 491.062 221.122C491.062 222.875 491.397 222.896 494.818 221.361C498.133 219.874 513.096 219.563 515.748 220.927C517.401 221.777 517.434 221.744 517.434 219.276C517.434 216.992 517.221 216.687 515.135 215.993C511.497 214.783 501.702 215.148 497.454 216.652ZM361.191 221.027C362.373 221.564 362.878 222.313 362.878 223.525V225.255L359.045 224.292C356.937 223.763 354.027 223.323 352.579 223.315C349.388 223.297 341.673 225.141 338.683 226.638L336.505 227.727V225.174C336.505 222.8 336.687 222.56 339.112 221.734C340.545 221.245 342.96 220.593 344.478 220.285C348.07 219.554 359.026 220.041 361.191 221.027ZM258.066 224.405C259.958 224.568 264.994 224.751 269.259 224.813C278.004 224.94 279.903 226.172 271.647 226.361C266.464 226.48 264.344 226.589 262.199 226.849C261.384 226.948 261.247 227.535 261.503 229.826C262.064 234.829 258.949 237.108 252.807 236.189C248.95 235.612 246.347 233.523 246.347 231.002C246.347 228.492 245.41 228.171 244.254 230.285C243 232.576 241.852 232.609 240.637 230.387C239.761 228.786 239.79 228.536 241.026 226.981C241.76 226.057 242.016 225.531 241.594 225.813C241.173 226.095 240.828 226.025 240.828 225.659C240.828 225.293 241.448 224.625 242.207 224.175C243.491 223.413 247.115 223.465 258.066 224.405ZM315.795 232.665C315.536 243.667 315.334 244.857 314.076 242.809C313.126 241.263 312.964 236.313 313.599 228.258C313.909 224.328 314.2 223.3 315.002 223.3C315.902 223.3 315.99 224.344 315.795 232.665ZM319.659 233.4C319.445 240.949 319.174 243.5 318.586 243.5C318.014 243.5 317.748 241.592 317.61 236.522C317.375 227.829 317.873 223.3 319.064 223.3C319.803 223.3 319.9 224.942 319.659 233.4ZM332.935 232.114C332.995 236.962 333.064 241.672 333.089 242.582C333.115 243.584 332.77 244.234 332.212 244.234C331.477 244.234 331.185 242.505 330.759 235.638C330.185 226.409 330.477 223.3 331.917 223.3C332.663 223.3 332.845 224.878 332.935 232.114ZM501.088 224.104C499.349 224.452 496.382 225.429 494.495 226.275L491.062 227.813V231.144C491.062 234.019 490.915 234.406 489.988 233.971C486.297 232.236 481.043 232.141 475.882 233.714L473.276 234.509V238.172C473.276 241.635 473.351 241.807 474.655 241.315C476.791 240.509 486.456 239.961 488.886 240.507C490.367 240.839 491.062 241.395 491.062 242.247C491.062 243.353 490.421 243.47 485.596 243.246C479.293 242.953 473.276 244.563 473.276 246.544C473.276 247.427 473.612 247.578 474.655 247.164C476.664 246.37 486.478 245.842 488.947 246.397C490.53 246.752 491.062 247.245 491.062 248.357C491.062 249.566 490.804 249.743 489.682 249.31C487.135 248.328 479.783 248.739 476.495 250.048L473.276 251.331V276.876V302.421L477.046 302.893C479.119 303.152 489.054 303.365 499.125 303.365H517.434V264.143V224.92L513.551 224.11C509.144 223.19 505.661 223.189 501.088 224.104ZM249.245 226.278C249.397 226.973 249.221 227.764 248.854 228.035C247.735 228.863 248.109 231.231 249.551 232.44C250.915 233.585 256.338 234.02 258.257 233.138C259.664 232.491 259.511 228.675 258.041 227.733C257.388 227.315 255.289 226.973 253.375 226.973C250.728 226.973 249.971 226.738 250.21 225.993C250.382 225.454 250.174 225.014 249.746 225.014C249.313 225.014 249.091 225.573 249.245 226.278ZM260.29 225.595C260.706 226.097 261.201 226.323 261.39 226.096C261.579 225.87 261.238 225.459 260.633 225.183C259.759 224.785 259.689 224.869 260.29 225.595ZM294.34 225.498C298.154 225.503 299.093 225.721 299.093 226.605C299.093 227.532 297.751 227.706 290.66 227.696C282.214 227.684 280.121 227.206 281.007 225.489C281.347 224.831 282.612 224.704 285.532 225.034C287.762 225.287 291.726 225.495 294.34 225.498ZM245.427 226.973C245.219 227.377 245.341 227.707 245.698 227.707C246.055 227.707 246.347 227.377 246.347 226.973C246.347 226.569 246.226 226.238 246.077 226.238C245.928 226.238 245.636 226.569 245.427 226.973ZM241.277 230.459C241.633 231.572 242.78 231.344 243.129 230.091C243.256 229.634 242.82 229.309 242.161 229.369C241.432 229.434 241.086 229.862 241.277 230.459ZM551.112 249.297C551.582 249.975 551.763 253.139 551.648 258.654C551.503 265.592 551.31 267.025 550.495 267.212C549.659 267.404 549.463 266.135 549.141 258.47C548.933 253.539 548.907 249.228 549.082 248.89C549.548 247.985 550.309 248.138 551.112 249.297ZM286.489 250.571C287.851 252.07 285.295 252.539 274.16 252.839C264.439 253.099 262.137 253.37 260.82 254.404C259.944 255.091 259.227 256.142 259.227 256.738C259.227 258.321 256.925 258.066 256.182 256.403C255.258 254.334 255.404 251.885 256.542 250.379C257.462 249.162 258.596 249.095 271.722 249.497C279.523 249.735 286.168 250.219 286.489 250.571ZM301.535 250.789C304.155 250.833 304.941 251.114 305.096 252.064C305.261 253.078 304.518 253.371 300.67 253.802C295.724 254.357 290.773 253.793 290.16 252.604C289.953 252.204 289.943 251.38 290.138 250.772C290.427 249.87 291.196 249.766 294.332 250.201C296.445 250.494 299.686 250.758 301.535 250.789ZM392.985 278.438C394.233 283.362 394.217 286.32 392.945 285.379C392.611 285.131 392.105 283.871 391.822 282.578C391.405 280.673 391.039 280.274 389.894 280.472C388.569 280.703 388.509 280.545 388.921 277.915C389.472 274.395 390.368 272.346 391.113 272.898C391.429 273.132 392.271 275.625 392.985 278.438ZM562.409 273.432C563.267 274.184 562.011 274.35 555.474 274.35C547.924 274.35 546.92 274.172 547.896 273.004C548.661 272.087 561.298 272.46 562.409 273.432ZM432.018 276.495C430.071 277.454 427.5 279.132 426.304 280.225C425.108 281.318 423.993 282.049 423.828 281.85C423.053 280.923 432.123 274.812 434.33 274.774C435.004 274.762 433.964 275.537 432.018 276.495ZM356.898 277.393L359.198 277.848V288.036V298.223H350.305H341.412V287.991C341.412 277.963 341.439 277.751 342.792 277.44C345.01 276.928 354.393 276.897 356.898 277.393ZM511.455 277.393L513.755 277.848V288.036V298.223H504.861H495.968V287.991C495.968 277.963 495.996 277.751 497.348 277.44C499.567 276.928 508.949 276.897 511.455 277.393ZM431.178 280.952C425.769 284.285 423.644 284.978 427.434 282.174C430.103 280.197 434.722 277.693 435.735 277.672C436.17 277.663 434.12 279.139 431.178 280.952ZM555.819 278.218C558.395 280.306 557.849 283.676 554.511 286.293C553.055 287.434 552.394 288.512 552.394 289.742C552.394 291.356 552.68 291.553 555.307 291.755C556.909 291.879 558.155 292.31 558.075 292.714C557.897 293.612 551.79 294.134 551.137 293.307C550.88 292.981 550.855 291.392 551.081 289.776C551.407 287.451 551.972 286.467 553.783 285.061C556.597 282.881 556.941 280.148 554.496 279.413C553.604 279.145 552.616 279.299 552.226 279.766C551.846 280.222 551.314 280.594 551.044 280.594C550.252 280.594 550.483 278.548 551.32 278.142C552.499 277.573 555.077 277.616 555.819 278.218ZM314.474 279.553C314.504 280.409 314.649 280.583 314.845 279.998C315.022 279.467 315 278.833 314.796 278.589C314.593 278.346 314.448 278.779 314.474 279.553ZM314.523 282.798C314.523 283.808 314.662 284.221 314.832 283.716C315.002 283.211 315.002 282.385 314.832 281.879C314.662 281.375 314.523 281.788 314.523 282.798ZM532.653 281.83C533.095 282.043 533.624 282.016 533.828 281.772C534.032 281.528 533.67 281.355 533.023 281.387C532.309 281.422 532.163 281.596 532.653 281.83ZM314.622 289.408C314.622 292.034 314.734 293.109 314.869 291.796C315.005 290.482 315.005 288.335 314.869 287.021C314.734 285.708 314.622 286.782 314.622 289.408ZM315.795 287.205C315.795 288.619 315.921 289.197 316.075 288.49C316.23 287.784 316.23 286.626 316.075 285.919C315.921 285.213 315.795 285.791 315.795 287.205ZM319.429 286.47C319.429 287.48 319.568 287.894 319.738 287.388C319.909 286.884 319.909 286.058 319.738 285.552C319.568 285.048 319.429 285.46 319.429 286.47ZM528.328 286.255C529.091 286.431 530.195 286.424 530.782 286.24C531.368 286.057 530.744 285.913 529.394 285.921C528.045 285.929 527.565 286.08 528.328 286.255ZM401.253 288.022C401.902 289.278 400.273 290.119 397.168 290.132C394.66 290.142 390.967 291.163 387.871 292.704C387.059 293.108 386.797 292.883 386.797 291.78C386.797 290.084 388.88 288.868 393.304 287.98C397.758 287.086 400.778 287.101 401.253 288.022ZM437.914 292.368C435.163 293.927 432.731 295.551 432.511 295.977C432.291 296.404 431.835 296.754 431.497 296.754C431.16 296.754 431.071 296.393 431.298 295.952C431.783 295.012 441.322 289.379 442.27 289.472C442.625 289.507 440.665 290.81 437.914 292.368ZM401.774 292.058C403.563 292.881 402.868 294.55 400.737 294.55C399.634 294.55 396.942 295.164 394.757 295.914C392.572 296.663 390.387 297.407 389.9 297.566C389.415 297.726 388.919 297.324 388.799 296.673C388.546 295.304 390.29 294.32 395.691 292.782C400.081 291.533 400.517 291.481 401.774 292.058ZM438.375 296.042C435.202 298.059 432.485 299.564 432.338 299.387C432.059 299.054 433.805 297.852 439.543 294.431C445.309 290.993 444.447 292.181 438.375 296.042ZM523.758 296.387C523.761 298.811 523.876 299.713 524.012 298.393C524.148 297.073 524.146 295.09 524.006 293.986C523.866 292.882 523.754 293.963 523.758 296.387ZM562.1 298.279C563.33 298.798 563.917 299.406 563.58 299.81C563.242 300.215 562.433 300.215 561.54 299.81C558.417 298.396 553.949 298.188 550.554 299.303C546.622 300.593 546.26 300.635 546.26 299.81C546.26 299.47 547.434 298.769 548.867 298.252C550.3 297.734 551.75 297.19 552.087 297.043C553.201 296.559 560.023 297.401 562.1 298.279ZM535.719 300.928C536.162 301.141 536.691 301.114 536.895 300.87C537.098 300.626 536.736 300.453 536.09 300.485C535.375 300.52 535.23 300.694 535.719 300.928ZM112.857 335.673C108.398 337.073 104.495 339.138 101.451 341.707L99.7641 343.13V359.205V375.281L104.671 399.68C107.369 413.1 109.577 424.354 109.577 424.689C109.577 425.024 107.369 425.298 104.671 425.298H99.7641V431.125C99.7641 437.835 99.3403 437.405 106.708 438.162C110.647 438.567 111.441 438.855 111.147 439.771C110.876 440.619 111.05 440.748 111.87 440.307C112.464 439.988 113.64 439.73 114.484 439.736C117.464 439.753 121.23 440.281 121.23 440.684C121.23 440.907 122.956 441.114 125.064 441.142C127.172 441.17 130.389 441.471 132.213 441.809C134.602 442.253 135.411 442.196 135.107 441.609C134.842 441.095 135.658 440.479 137.308 439.946C140.581 438.891 143.809 436.921 145.618 434.874C146.381 434.01 147.241 433.477 147.528 433.69C148.091 434.107 147.867 428.607 147.274 427.459C147.078 427.079 147.417 426.762 148.027 426.756C148.901 426.748 148.822 426.554 147.655 425.838C146.346 425.037 145.582 422.371 141.084 402.895C138.285 390.775 134.709 375.322 133.137 368.555L130.278 356.252L127.747 356.263C121.89 356.288 113.277 359.953 108.226 364.57L105.377 367.176L104.698 364.843C103.915 362.154 104.193 361.777 109.271 358.658C114.072 355.709 120.216 353.45 124.957 352.89C128.992 352.414 129.278 352.267 128.954 350.826C128.764 349.972 128.603 349.026 128.599 348.723C128.582 347.648 122.672 348.194 118.151 349.688C113.45 351.242 107.255 354.955 104.856 357.657C103.413 359.282 103.211 359.147 102.617 356.16C102.287 354.504 102.577 353.958 104.669 352.3C109.724 348.294 119.774 344.499 125.33 344.499C126.448 344.499 127.363 344.229 127.363 343.898C127.363 342.278 125.303 335.25 124.69 334.777C123.43 333.806 117.334 334.268 112.857 335.673ZM292.622 342.264C291.458 342.829 289.555 348.011 290.219 348.808C290.378 348.996 290.506 348.765 290.506 348.294C290.506 347.72 291.973 347.438 294.953 347.44C299.791 347.443 303.68 349.335 303.029 351.369C302.753 352.231 302.181 352.168 299.588 350.989C297.518 350.046 295.331 349.646 293.049 349.791L289.62 350.008L281.514 382.328C272.864 416.821 272.345 419.021 273.296 417.162C274.513 414.784 287.352 418.191 286.555 420.68C286.366 421.266 286.213 422.024 286.213 422.364C286.213 422.705 284.626 422.301 282.687 421.467C280.747 420.632 277.713 419.914 275.944 419.87C274.175 419.825 272.707 419.459 272.681 419.055C272.64 418.41 271.643 420.661 271.541 421.626C271.52 421.828 273.363 422.037 275.638 422.09C281.074 422.218 285.666 424.468 285.166 426.759C284.957 427.717 284.492 428.167 283.963 427.923C281.14 426.626 276.263 425.249 274.198 425.167C272.88 425.114 271.628 424.758 271.419 424.376C271.21 423.994 270.658 424.729 270.193 426.01C269.392 428.217 269.193 428.327 266.433 428.104C263.85 427.896 263.525 428.036 263.568 429.338C263.595 430.146 263.756 430.394 263.926 429.889C264.097 429.384 265.087 428.971 266.127 428.971C267.167 428.971 267.836 429.188 267.614 429.454C267.392 429.72 267.47 430.311 267.787 430.768C268.766 432.182 267.259 437.785 265.899 437.785C265.265 437.785 264.747 437.42 264.747 436.972C264.747 436.525 265.156 436.347 265.655 436.576C266.291 436.869 266.725 436.285 267.099 434.635C267.393 433.338 267.467 431.946 267.263 431.542C267.06 431.138 266.806 431.716 266.7 432.827C266.586 434.006 266.131 434.847 265.606 434.847C265.112 434.847 264.458 435.591 264.153 436.5C263.643 438.02 263.594 438.034 263.55 436.684C263.51 435.462 263.401 435.4 262.907 436.316C262.58 436.922 262.308 438.181 262.303 439.114C262.298 440.056 262.021 440.608 261.68 440.356C261.333 440.098 261.067 440.716 261.067 441.782C261.067 442.816 260.745 443.662 260.351 443.662C259.958 443.662 259.78 443.835 259.957 444.047C260.401 444.578 262.346 443.622 262.037 443.025C261.9 442.759 262.168 441.72 262.632 440.714C263.476 438.889 263.477 438.891 263.499 441.549C263.52 444.146 263.568 444.199 265.468 443.734C266.539 443.471 267.538 442.817 267.687 442.28C267.874 441.61 267.596 441.441 266.804 441.743C265.628 442.19 263.64 439.601 264.431 438.654C264.641 438.402 265.044 438.641 265.325 439.186C265.606 439.731 266.124 439.964 266.477 439.703C266.829 439.443 267.48 439.814 267.925 440.527C269.213 442.594 272.222 444.266 275.628 444.808C277.416 445.092 278.92 445.746 279.104 446.321C279.369 447.149 282.089 447.304 294.014 447.171L308.599 447.008L294.054 446.62C281.391 446.283 279.583 446.092 280.074 445.14C280.512 444.293 282.173 444.018 287.464 443.916C291.218 443.842 294.473 443.546 294.698 443.256C294.922 442.965 293.588 442.92 291.733 443.153C289.362 443.452 288.906 443.394 290.2 442.956C293.364 441.884 298.478 441.593 298.489 442.484C298.494 442.93 298.766 442.799 299.093 442.193C299.469 441.496 299.691 441.42 299.697 441.986C299.702 442.478 300.118 442.691 300.622 442.46C301.127 442.228 301.4 441.768 301.229 441.438C301.059 441.108 301.952 441.179 303.215 441.597C304.478 442.014 307.931 442.218 310.889 442.048C315.237 441.799 316.266 441.939 316.266 442.78C316.266 443.425 316.633 443.65 317.236 443.373C317.77 443.128 318.942 442.88 319.843 442.823C320.988 442.75 320.742 442.585 319.026 442.272L316.572 441.825L316.436 404.748C316.279 362.157 317.121 366.671 309.318 366.587L304.515 366.535L305.024 364.148C305.901 360.032 305.42 348.268 304.29 346.203C302.364 342.683 296.11 340.571 292.622 342.264ZM246.379 363.597C246.379 367.031 247.045 375.273 247.859 381.913C248.672 388.552 249.323 394.171 249.304 394.4C249.042 397.514 249.459 398.12 251.867 398.12C254.582 398.12 254.54 398.172 253.778 395.773C253.48 394.833 252.604 388.29 251.832 381.233C250.668 370.589 250.084 367.459 248.404 362.877L246.379 357.353V363.597ZM265.584 369.303C264.037 371.955 262.04 377.182 260.188 383.429C258.57 388.883 257.036 393.676 256.779 394.08C256.521 394.484 256.12 395.559 255.888 396.468C255.503 397.969 255.666 398.12 257.672 398.12C258.928 398.12 259.959 397.725 260.066 397.202C260.169 396.697 261.016 393.64 261.948 390.408C266.202 375.644 268.643 365.815 268.188 365.269C268.106 365.172 266.935 366.987 265.584 369.303ZM179.968 380.995C178.646 381.41 177.543 386.048 177.973 389.39C178.204 391.191 178.146 391.472 177.76 390.411C177.328 389.223 177.142 389.619 176.782 392.497C176.537 394.452 176.496 396.241 176.69 396.473C176.883 396.706 177.042 396.014 177.042 394.938C177.042 393.86 177.27 392.979 177.55 392.979C177.829 392.979 177.929 394.052 177.773 395.366C177.496 397.692 177.519 397.72 178.694 396.468C180.281 394.774 180.92 394.835 180.13 396.605C179.753 397.449 178.703 398.121 177.549 398.258C176.464 398.385 175.494 398.975 175.356 399.589C175.137 400.569 175.181 400.569 175.76 399.589C176.901 397.655 176.476 399.41 175.15 402.101C173.745 404.954 173.94 408.255 175.632 410.283C176.151 410.903 176.461 411.549 176.321 411.717C176.181 411.883 171.05 412.06 164.918 412.109C158.787 412.157 153.829 412.418 153.902 412.688C153.974 412.957 153.546 414.005 152.951 415.015L151.869 416.851L152.231 414.28C153.196 407.44 153.997 404.105 155.364 401.242C157.149 397.504 156.843 397.048 154.976 400.665C153.287 403.94 152.688 406.469 151.582 415.015C151.085 418.853 150.284 423.532 149.801 425.415C149.317 427.297 149.085 429.032 149.285 429.271C149.484 429.51 149.363 429.705 149.016 429.705C148.31 429.705 149.512 435.066 151.157 439.254C151.713 440.668 152.137 442.235 152.101 442.735C152.064 443.236 152.248 443.488 152.51 443.294C153.108 442.852 154.467 444.745 153.974 445.335C153.774 445.575 164.87 445.803 178.633 445.841C192.396 445.879 203.786 446.065 203.945 446.255C204.103 446.445 193.216 446.677 179.751 446.771L155.269 446.941L179.802 447.322L204.335 447.702L204.719 453.211C205.165 459.612 206.671 464.819 207.373 462.392C207.606 461.584 208.223 459.766 208.744 458.353L209.689 455.782L210.692 457.616C211.864 459.759 214.431 462.76 215.093 462.76C215.345 462.76 215.312 461.521 215.018 460.005C214.234 455.96 214.336 448.505 215.191 447.481C215.596 446.997 215.664 446.531 215.344 446.446C215.023 446.362 218.901 446.114 223.961 445.895L233.161 445.498L233.356 443.063C233.463 441.723 233.217 440.145 232.81 439.557C232.207 438.688 232.245 438.568 233.012 438.92C233.532 439.159 234.11 439.058 234.297 438.696C234.485 438.333 234.029 438.095 233.286 438.167C231.65 438.325 230.842 437.083 231.738 435.79C232.221 435.093 232.149 434.847 231.462 434.847C230.303 434.847 229.788 433.306 229.787 429.829L229.785 427.135L234.537 427.383C237.259 427.525 239.482 427.995 239.742 428.485C240.015 429 240.199 428.682 240.205 427.685C240.214 426.093 240.012 426.033 234.694 426.033H229.174V429.277C229.174 431.061 229.726 434.064 230.401 435.949C231.076 437.834 231.628 439.515 231.628 439.683C231.628 439.851 227.769 439.989 223.053 439.989H214.478L214.081 437.969C213.862 436.858 213.116 434.71 212.423 433.195L211.162 430.44H206.274C201.663 430.44 201.44 430.513 202.339 431.725C203.161 432.833 204.628 437.759 204.638 439.447C204.64 439.755 193.947 439.92 180.876 439.814L157.109 439.622L156.935 431.713C156.84 427.363 157.057 422.488 157.419 420.878L158.077 417.953H195.501H232.925L232.736 414.831C232.596 412.508 232.312 411.772 231.628 411.954C231.122 412.089 230.906 411.96 231.149 411.67C231.393 411.379 231.017 410.176 230.316 408.995C229.615 407.815 228.889 407.032 228.702 407.255C228.516 407.478 228.865 408.323 229.477 409.134C230.591 410.607 230.578 410.607 205.043 410.607H179.496V406.995C179.496 400.513 177.122 401.058 205.321 401.058C228.803 401.058 230.4 400.976 230.388 399.773C230.38 399.066 229.795 397.661 229.088 396.651L227.802 394.815L228.748 396.722C229.671 398.587 229.658 398.621 228.151 398.276C227.303 398.082 226.872 397.72 227.194 397.471C228.006 396.844 227.652 393.303 226.8 393.529C226.419 393.631 226.108 393.442 226.108 393.111C226.108 392.779 225.28 391.398 224.268 390.04C223.256 388.683 222.437 387.218 222.448 386.786C222.458 386.354 222.99 386.827 223.631 387.837C227.413 393.806 227.279 393.179 223.119 385.449L220.451 380.491L200.74 380.577C189.899 380.624 180.551 380.812 179.968 380.995ZM209.088 381.775C204.281 381.899 196.415 381.899 191.609 381.775C186.801 381.651 190.735 381.55 200.348 381.55C209.962 381.55 213.895 381.651 209.088 381.775ZM220.843 382.431C221.132 383.333 221.033 383.451 220.449 382.898C220.019 382.491 219.254 381.974 218.748 381.75C218.12 381.471 218.245 381.324 219.142 381.284C219.865 381.252 220.63 381.769 220.843 382.431ZM179.608 383.589C179.168 384.116 178.882 384.159 178.882 383.699C178.882 382.718 179.608 381.85 180.017 382.34C180.191 382.549 180.007 383.111 179.608 383.589ZM301.546 404.364V426.033H296.946C294.251 426.033 292.346 425.725 292.346 425.289C292.346 424.088 301.063 382.695 301.316 382.695C301.442 382.695 301.546 392.446 301.546 404.364ZM179.243 387.649C178.573 388.452 178.114 387.176 178.595 385.848C179.051 384.59 179.084 384.591 179.338 385.874C179.485 386.613 179.442 387.411 179.243 387.649ZM240.682 395.701C241.445 395.877 242.548 395.87 243.135 395.687C243.721 395.503 243.097 395.359 241.747 395.367C240.398 395.375 239.919 395.526 240.682 395.701ZM261.845 395.691C262.442 395.878 263.27 395.865 263.685 395.664C264.101 395.463 263.612 395.311 262.6 395.325C261.588 395.34 261.249 395.505 261.845 395.691ZM265.859 396.418C266.301 396.631 266.83 396.604 267.034 396.36C267.238 396.116 266.876 395.943 266.229 395.975C265.515 396.01 265.369 396.184 265.859 396.418ZM166.463 397.193C168.233 397.341 171.132 397.341 172.902 397.193C174.673 397.044 173.224 396.923 169.682 396.923C166.141 396.923 164.692 397.044 166.463 397.193ZM186.689 397.829C186.486 398.073 185.956 398.1 185.514 397.887C185.025 397.653 185.17 397.479 185.885 397.444C186.531 397.412 186.893 397.586 186.689 397.829ZM218.934 397.933C215.496 398.064 209.7 398.064 206.055 397.934C202.41 397.804 205.224 397.697 212.308 397.696C219.392 397.696 222.374 397.802 218.934 397.933ZM171.982 399.341C172.404 399.545 173.094 399.545 173.516 399.341C173.938 399.138 173.592 398.971 172.749 398.971C171.906 398.971 171.561 399.138 171.982 399.341ZM173.362 401.469C173.362 402.099 173.638 402.41 173.976 402.16C174.313 401.911 174.589 401.396 174.589 401.015C174.589 400.635 174.313 400.324 173.976 400.324C173.638 400.324 173.362 400.84 173.362 401.469ZM140.706 417.874C142.332 424.97 142.62 427.104 142.013 427.554C141.584 427.871 138.091 429.166 134.251 430.432C130.411 431.698 126.915 432.896 126.483 433.095C125.929 433.349 125.035 430.629 123.463 423.902C122.235 418.648 121.23 414.172 121.23 413.957C121.23 412.502 132.425 408.433 135.905 408.623L138.62 408.771L140.706 417.874ZM320.406 422.112C320.828 422.316 321.518 422.316 321.939 422.112C322.361 421.908 322.016 421.742 321.172 421.742C320.329 421.742 319.984 421.908 320.406 422.112ZM325.964 422.862C326.406 423.074 326.936 423.048 327.139 422.804C327.343 422.56 326.981 422.387 326.335 422.418C325.62 422.453 325.475 422.627 325.964 422.862ZM331.752 423.621C332.68 423.789 334.197 423.789 335.125 423.621C336.053 423.452 335.294 423.315 333.439 423.315C331.583 423.315 330.824 423.452 331.752 423.621ZM265.207 426.551C265.966 426.726 267.208 426.726 267.967 426.551C268.726 426.376 268.105 426.233 266.587 426.233C265.069 426.233 264.448 426.376 265.207 426.551ZM300.933 428.457C300.933 429.684 300.556 430.179 299.553 430.264C298.794 430.329 296.724 430.602 294.953 430.872C291.577 431.385 290.939 430.728 292.396 428.236C292.889 427.394 292.939 427.559 292.613 428.936C292.204 430.657 292.233 430.68 293.264 429.445C293.858 428.734 294.723 428.326 295.185 428.538C295.648 428.751 296.026 428.566 296.026 428.128C296.026 427.689 295.474 427.503 294.8 427.715C294.125 427.926 293.573 427.799 293.573 427.433C293.573 427.067 295.229 426.767 297.253 426.767C300.684 426.767 300.933 426.882 300.933 428.457ZM324.738 428.738C325.18 428.95 325.709 428.924 325.913 428.68C326.116 428.436 325.754 428.263 325.108 428.294C324.393 428.33 324.248 428.504 324.738 428.738ZM335.444 428.745C336.04 428.932 336.868 428.92 337.284 428.718C337.699 428.517 337.211 428.365 336.199 428.38C335.187 428.394 334.847 428.559 335.444 428.745ZM346.955 428.764C346.979 429.349 353.678 435.165 353.678 434.6C353.678 434.429 352.16 432.917 350.305 431.239C348.45 429.562 346.942 428.447 346.955 428.764ZM24.9391 430.831C24.3203 431.746 24.2841 432 24.8275 431.609C25.4703 431.145 25.6187 432.133 25.5494 436.426C25.4335 443.638 25.377 443.333 26.8515 443.466C27.9898 443.569 28.0296 443.474 27.1759 442.705C26.4473 442.048 26.1572 440.26 26.0296 435.648C25.8744 430.026 25.7763 429.593 24.9391 430.831ZM234.694 430.354C234.694 430.711 235.246 431.176 235.921 431.388C236.718 431.637 237.148 431.41 237.148 430.738C237.148 430.17 236.596 429.705 235.921 429.705C235.246 429.705 234.694 429.998 234.694 430.354ZM240.311 431.909C240.311 432.919 240.45 433.333 240.62 432.827C240.791 432.323 240.791 431.496 240.62 430.991C240.45 430.486 240.311 430.899 240.311 431.909ZM262.916 433.562C262.924 434.898 263.039 435.004 263.52 434.113C264.289 432.688 264.289 431.909 263.52 431.909C263.183 431.909 262.911 432.653 262.916 433.562ZM20.0326 435.696C18.5146 437.352 17.7118 438.336 18.249 437.885C18.7863 437.433 19.4009 437.273 19.6143 437.53C19.8283 437.786 20.1773 437.454 20.3889 436.793C20.6054 436.119 21.0832 435.821 21.4769 436.117C23.0998 437.331 23.8026 436.918 22.6919 435.402C21.7793 434.155 21.7499 433.944 22.5368 434.285C23.1292 434.542 23.5083 434.304 23.5083 433.676C23.5083 432.137 23.0575 432.398 20.0326 435.696ZM240.947 436.684C240.959 437.896 241.097 438.303 241.253 437.588C241.408 436.873 241.398 435.881 241.23 435.384C241.062 434.887 240.935 435.472 240.947 436.684ZM354.905 435.859C354.905 436.011 355.388 436.59 355.978 437.145C356.951 438.058 356.972 438.032 356.21 436.867C355.408 435.643 354.905 435.255 354.905 435.859ZM24.3743 437.479C24.4037 438.335 24.5491 438.509 24.7447 437.923C24.922 437.393 24.8999 436.759 24.6962 436.515C24.4926 436.272 24.3479 436.705 24.3743 437.479ZM144.332 436.806C144.107 437.075 143.923 437.994 143.923 438.848C143.923 439.701 143.371 440.876 142.696 441.458C140.858 443.045 141.201 443.662 143.923 443.662H146.376V439.899C146.376 436.457 146.288 436.222 145.339 437.145C144.633 437.829 144.449 437.858 144.761 437.235C145.255 436.251 145.004 436.001 144.332 436.806ZM148.83 437.357C148.83 437.929 148.485 438.564 148.063 438.768C147.605 438.989 147.729 439.162 148.37 439.196C149.05 439.233 149.443 438.717 149.443 437.785C149.443 436.977 149.305 436.316 149.136 436.316C148.968 436.316 148.83 436.785 148.83 437.357ZM347.029 437.785C347.029 438.795 347.168 439.209 347.338 438.704C347.508 438.199 347.508 437.373 347.338 436.867C347.168 436.363 347.029 436.775 347.029 437.785ZM353.218 438.15C352.797 438.723 352.452 440.198 352.452 441.427C352.452 443.526 352.594 443.662 354.787 443.662C357.013 443.662 357.116 443.556 356.991 441.407C356.92 440.166 356.352 438.689 355.73 438.124C354.329 436.853 354.17 436.855 353.218 438.15ZM15.824 439.499C15.3168 440.231 15.3499 440.479 15.9534 440.479C16.398 440.479 16.7617 440.038 16.7617 439.499C16.7617 438.961 16.7035 438.52 16.6323 438.52C16.5612 438.52 16.1975 438.961 15.824 439.499ZM18.181 439.639C17.5327 440.574 17.5707 440.682 18.4128 440.295C18.966 440.04 19.4193 439.537 19.4193 439.176C19.4193 438.231 19.0641 438.364 18.181 439.639ZM357.511 439.438C357.652 439.943 358.02 440.361 358.329 440.367C358.638 440.374 359.305 440.679 359.811 441.045C360.369 441.449 360.271 441.082 359.563 440.115C358.285 438.371 357.106 437.982 357.511 439.438ZM140.079 440.724C139.501 441.532 139.292 442.193 139.615 442.193C139.936 442.193 140.495 441.532 140.856 440.724C141.218 439.916 141.427 439.254 141.321 439.254C141.215 439.254 140.657 439.916 140.079 440.724ZM241.211 440.54C240.954 441.449 240.458 442.193 240.107 442.193C239.757 442.193 239.612 441.748 239.786 441.205C240.012 440.499 239.683 440.314 238.625 440.557C236.869 440.959 236.642 442.193 238.323 442.193C238.97 442.193 239.639 442.606 239.81 443.111C240.05 443.821 240.255 443.8 240.712 443.017C241.088 442.374 241.609 442.236 242.139 442.639C242.598 442.988 246.611 443.283 251.056 443.294C255.502 443.306 258.851 443.103 258.5 442.843C258.069 442.523 258.083 442.282 258.544 442.098C258.92 441.948 255.64 441.849 251.255 441.878C246.869 441.908 243.281 441.64 243.281 441.284C243.281 440.928 243.026 440.826 242.714 441.056C242.402 441.287 242.041 440.893 241.912 440.181C241.715 439.095 241.603 439.152 241.211 440.54ZM113.756 440.491C114.198 440.703 114.727 440.677 114.931 440.433C115.134 440.189 114.773 440.015 114.126 440.047C113.412 440.082 113.266 440.256 113.756 440.491ZM21.8725 441.374C21.8725 441.731 22.5625 442.565 23.4058 443.227C24.2491 443.889 24.9391 444.092 24.9391 443.679C24.9391 443.265 24.6631 442.927 24.3258 442.927C23.9885 442.927 23.7125 442.431 23.7125 441.825C23.7125 441.219 23.2985 440.724 22.7925 440.724C22.2865 440.724 21.8725 441.016 21.8725 441.374ZM104.671 442.193C104.671 443.172 105.08 443.662 105.897 443.662C106.715 443.662 107.124 443.172 107.124 442.193C107.124 441.213 106.715 440.724 105.897 440.724C105.08 440.724 104.671 441.213 104.671 442.193ZM116.937 441.372C116.937 441.842 115.872 442.193 114.448 442.193C112.944 442.193 112.108 442.484 112.337 442.927C112.546 443.331 113.512 443.662 114.484 443.662C115.456 443.662 116.422 443.331 116.63 442.927C117.109 442 120.004 441.957 120.004 442.876C120.004 443.252 120.624 443.703 121.384 443.878C122.143 444.053 121.453 444.241 119.85 444.296C117.728 444.369 116.937 444.691 116.937 445.481C116.937 446.389 115.16 446.601 106.051 446.785C100.063 446.905 108.688 447.002 125.217 446.999C141.746 446.997 148.853 446.9 141.01 446.784C131.546 446.644 126.75 446.313 126.75 445.799C126.75 444.391 124.848 442.718 122.563 442.116C121.324 441.791 119.551 441.305 118.624 441.038C117.549 440.729 116.937 440.85 116.937 441.372ZM133.33 441.167C133.127 441.411 132.598 441.438 132.155 441.225C131.666 440.991 131.811 440.817 132.526 440.782C133.172 440.75 133.534 440.923 133.33 441.167ZM234.447 442.499C234.527 443.341 234.615 444.277 234.643 444.58C234.721 445.415 236.534 445.24 236.534 444.396C236.534 443.992 236.284 443.662 235.979 443.662C235.673 443.662 235.555 443.056 235.717 442.315C235.898 441.485 235.683 440.968 235.156 440.968C234.652 440.968 234.361 441.597 234.447 442.499ZM350.66 441.886C350.69 442.742 350.835 442.916 351.031 442.331C351.208 441.8 351.186 441.166 350.982 440.923C350.778 440.679 350.634 441.112 350.66 441.886ZM12.7574 442.437C12.2502 443.17 12.2833 443.417 12.8868 443.417C13.3314 443.417 13.6951 442.976 13.6951 442.437C13.6951 441.899 13.6369 441.458 13.5657 441.458C13.4946 441.458 13.1309 441.899 12.7574 442.437ZM346.356 442.165C345.891 442.509 345.071 442.647 344.534 442.47C343.998 442.292 344.188 442.543 344.959 443.027C346.014 443.691 346.532 443.7 347.064 443.062C347.968 441.98 347.466 441.343 346.356 442.165ZM360.497 442.456C359.931 443.272 360.065 443.455 361.179 443.383C361.941 443.334 362.601 443.708 362.645 444.213C362.689 444.718 362.792 445.378 362.874 445.682C362.956 445.985 363 446.447 362.971 446.709C362.943 446.971 364.007 447.309 365.336 447.461C366.665 447.613 367.553 447.537 367.309 447.294C362.25 442.246 361.172 441.481 360.497 442.456ZM43.7932 442.627C43.5932 442.867 42.3746 443.517 41.0841 444.072L38.7388 445.081L40.9793 444.922C42.2108 444.835 43.1099 444.55 42.9756 444.29C42.5432 443.446 44.7499 442.854 45.4037 443.637C45.7521 444.055 46.6034 444.383 47.2946 444.368C48.2164 444.346 48.0012 444.052 46.4881 443.266C44.1054 442.027 44.2636 442.064 43.7932 442.627ZM61.125 443.357C60.2547 443.935 59.9891 444.374 60.5116 444.374C61.0176 444.374 61.8205 444.079 62.2964 443.718C62.8312 443.313 63.8831 443.42 65.0563 444.001C66.0984 444.517 67.7795 445.272 68.7915 445.679C69.8034 446.086 71.1834 446.656 71.8581 446.946C72.8424 447.369 72.9031 447.316 72.1647 446.681C71.2398 445.884 71.8354 445.732 76.6113 445.55C77.3706 445.522 78.1985 445.168 78.4512 444.764C78.7407 444.302 79.1602 444.437 79.5822 445.131C80.1575 446.075 80.2066 446.055 79.9238 444.995C79.4626 443.267 80.65 442.977 83.4351 444.139C84.7421 444.684 86.26 445.12 86.8083 445.107C87.356 445.093 86.2974 444.46 84.4556 443.698C81.4798 442.468 80.9186 442.431 79.4111 443.364C75.7992 445.602 69.6495 445.358 63.5782 442.736C63.0723 442.518 61.9683 442.797 61.125 443.357ZM96.8508 443.543C95.4169 444.19 94.2442 444.959 94.2442 445.253C94.2442 446.009 98.0474 444.408 99.1287 443.198C100.173 442.029 100.234 442.019 96.8508 443.543ZM136.563 442.927C136.563 443.331 136.856 443.662 137.213 443.662C137.57 443.662 137.692 443.331 137.483 442.927C137.275 442.523 136.983 442.193 136.834 442.193C136.685 442.193 136.563 442.523 136.563 442.927ZM147.603 442.927C147.603 443.331 147.879 443.662 148.216 443.662C148.554 443.662 148.83 443.331 148.83 442.927C148.83 442.523 148.554 442.193 148.216 442.193C147.879 442.193 147.603 442.523 147.603 442.927ZM246.501 442.679C246.079 442.883 245.389 442.883 244.967 442.679C244.546 442.475 244.891 442.309 245.734 442.309C246.577 442.309 246.923 442.475 246.501 442.679ZM302.658 442.694C303.1 442.907 303.63 442.88 303.833 442.636C304.037 442.392 303.675 442.219 303.029 442.251C302.314 442.286 302.169 442.46 302.658 442.694ZM268.734 443.662C268.942 444.066 269.234 444.396 269.383 444.396C269.532 444.396 269.654 444.066 269.654 443.662C269.654 443.258 269.361 442.927 269.004 442.927C268.647 442.927 268.525 443.258 268.734 443.662ZM305.725 443.429C306.167 443.641 306.696 443.615 306.9 443.371C307.103 443.127 306.742 442.954 306.095 442.985C305.381 443.02 305.235 443.195 305.725 443.429ZM308.47 443.945C308.823 445.233 313.199 445.444 313.199 444.174C313.199 443.441 312.456 443.128 310.723 443.128C309.178 443.128 308.331 443.435 308.47 443.945ZM325.159 443.696C329.481 444.502 335.333 444.479 333.745 443.662C333.071 443.314 330.173 443.051 327.306 443.077C322.53 443.12 322.35 443.172 325.159 443.696ZM337.894 443.455C338.826 443.623 340.206 443.618 340.96 443.444C341.715 443.27 340.952 443.132 339.265 443.137C337.579 443.143 336.962 443.286 337.894 443.455ZM8.99282 445.932C7.81219 447.159 7.4307 447.823 8.14583 447.407C8.86035 446.991 9.66318 446.888 9.93059 447.176C10.1974 447.465 10.2293 447.312 10.0011 446.834C9.77297 446.357 9.86681 445.76 10.2097 445.505C10.5525 445.252 10.8328 445.56 10.8328 446.189C10.8328 446.819 11.1186 447.334 11.4676 447.334C11.8975 447.334 11.9049 446.891 11.489 445.962C11.1517 445.207 11.0505 444.381 11.2633 444.125C12.3894 442.777 10.8512 444.001 8.99282 445.932ZM251.561 444.315C253.97 444.852 253.981 444.868 252.174 445.239C251.162 445.446 252.297 445.465 254.697 445.281C257.096 445.097 259.207 445.236 259.389 445.589C259.57 445.943 256.779 446.294 253.187 446.368C248.666 446.461 247.126 446.297 248.187 445.834C249.462 445.28 249.358 445.235 247.574 445.573C246.393 445.796 243.909 446.087 242.054 446.219L238.681 446.457L241.441 445.861L244.201 445.264L241.134 445.58C239.448 445.754 233.514 446.067 227.948 446.274C222.382 446.483 217.414 446.768 216.908 446.908C216.402 447.049 229.994 447.202 247.114 447.249C266.224 447.301 278.24 447.067 278.24 446.642C278.24 446.234 276.46 446.13 273.888 446.388C270.52 446.726 269.41 446.592 268.981 445.794C268.549 444.991 268.318 444.965 267.934 445.676C267.4 446.663 260.684 446.226 259.534 445.129C259.196 444.806 256.712 444.368 254.014 444.155C251.059 443.922 250.083 443.985 251.561 444.315ZM297.138 444.163C297.58 444.376 298.11 444.349 298.313 444.105C298.517 443.862 298.155 443.688 297.509 443.72C296.794 443.755 296.649 443.929 297.138 444.163ZM30.9576 444.898C31.3998 445.11 31.9291 445.084 32.1327 444.84C32.3364 444.596 31.9745 444.423 31.3281 444.454C30.6136 444.49 30.4682 444.664 30.9576 444.898ZM49.3186 444.883C49.7405 445.087 50.4305 445.087 50.8519 444.883C51.2738 444.679 50.9285 444.512 50.0852 444.512C49.2419 444.512 48.8972 444.679 49.3186 444.883ZM54.6851 445.131L51.6185 445.635L54.3785 445.699C55.8964 445.733 57.6904 445.478 58.365 445.131C59.7652 444.41 59.0728 444.41 54.6851 445.131ZM364.796 445.619C365.559 446.726 365.509 446.759 364.258 445.96C362.831 445.049 362.479 444.396 363.417 444.396C363.712 444.396 364.333 444.946 364.796 445.619ZM34.6063 445.65C35.3692 445.826 36.4732 445.819 37.0595 445.635C37.6459 445.452 37.0215 445.308 35.6722 445.316C34.3229 445.324 33.8433 445.475 34.6063 445.65ZM90.4183 445.65C91.1813 445.826 92.2853 445.819 92.8716 445.635C93.4579 445.452 92.8336 445.308 91.4843 445.316C90.135 445.324 89.6553 445.475 90.4183 445.65ZM273.18 445.617C273.602 445.821 274.292 445.821 274.713 445.617C275.135 445.414 274.79 445.247 273.947 445.247C273.103 445.247 272.759 445.414 273.18 445.617ZM45.792 446.595C45.792 446.997 46.3366 447.226 47.0027 447.104C48.9236 446.753 49.2278 445.865 47.4277 445.865C46.528 445.865 45.792 446.194 45.792 446.595ZM50.4857 446.784C50.6427 447.087 54.2736 447.282 58.5545 447.217C67.0717 447.088 66.1695 446.757 56.4294 446.438C53.0034 446.324 50.3287 446.48 50.4857 446.784ZM74.3113 446.6C73.2895 447.126 73.4232 447.24 75.1142 447.283C76.32 447.313 76.9897 447.036 76.7646 446.6C76.323 445.743 75.9753 445.743 74.3113 446.6ZM82.2845 446.649C78.304 446.986 78.9983 447.074 85.9644 447.115C94.2356 447.163 95.7389 446.912 89.951 446.452C88.433 446.331 84.9831 446.42 82.2845 446.649ZM311.359 446.722C314.423 447.281 362.638 447.536 362.182 446.991C362.024 446.802 349.903 446.55 335.247 446.432C320.591 446.314 309.841 446.444 311.359 446.722ZM13.1714 447.102C13.6136 447.314 14.1429 447.287 14.3465 447.044C14.5501 446.8 14.1883 446.626 13.5418 446.658C12.8273 446.693 12.6819 446.867 13.1714 447.102ZM23.5592 447.086C23.9811 447.29 24.6711 447.29 25.0925 447.086C25.5144 446.883 25.1691 446.716 24.3258 446.716C23.4825 446.716 23.1378 446.883 23.5592 447.086ZM67.7568 447.102C68.199 447.314 68.7283 447.287 68.9319 447.044C69.1355 446.8 68.7737 446.626 68.1272 446.658C67.4127 446.693 67.2674 446.867 67.7568 447.102Z" fill="#EDA539"/>
</svg>
